<?xml version="1.0" standalone="no"?>
<!DOCTYPE svg PUBLIC "-//W3C//DTD SVG 20010904//EN"
 "http://www.w3.org/TR/2001/REC-SVG-20010904/DTD/svg10.dtd">
<svg version="1.0" xmlns="http://www.w3.org/2000/svg"
 width="180.000000pt" height="165.000000pt" viewBox="0 0 180.000000 165.000000"
 preserveAspectRatio="xMidYMid meet">

<g transform="translate(0.000000,165.000000) scale(0.100000,-0.100000)"
fill="#000000" stroke="none">
<path d="M501 1464 c-158 -104 -263 -268 -297 -466 -41 -239 55 -494 244 -643
57 -46 193 -117 245 -129 l27 -6 0 146 0 146 23 -6 c12 -3 28 -6 35 -6 9 0 12
-43 12 -181 l0 -181 -45 7 c-135 20 -274 94 -386 205 -97 96 -154 185 -195
305 -25 72 -28 94 -28 225 -1 125 2 155 22 219 22 68 22 75 7 90 -15 15 -18
14 -34 -6 -54 -66 -76 -362 -37 -503 24 -90 86 -212 146 -292 126 -165 341
-285 563 -312 l47 -6 0 210 0 210 35 0 35 0 0 -210 0 -211 53 7 c334 43 598
263 699 584 20 65 23 96 23 225 0 130 -3 160 -24 228 -23 73 -26 78 -50 75
-30 -3 -30 -5 -2 -113 38 -143 27 -317 -29 -468 -75 -201 -283 -386 -500 -446
-120 -34 -110 -48 -110 159 0 137 3 180 13 180 6 0 22 3 35 6 l22 6 0 -146 0
-146 28 6 c102 23 257 125 337 221 265 322 188 805 -163 1027 -47 30 -72 28
-72 -3 0 -13 20 -34 59 -60 132 -90 236 -248 267 -406 45 -230 -52 -480 -240
-620 -44 -32 -137 -85 -151 -85 -3 0 -5 61 -5 135 0 87 4 135 10 135 6 0 22
11 35 25 35 34 35 96 0 131 -26 26 -26 26 -11 85 19 72 38 102 82 130 31 19
34 25 34 67 0 103 -150 338 -283 443 -88 70 -148 52 -266 -77 -63 -68 -151
-200 -181 -269 -11 -25 -20 -68 -20 -95 0 -43 4 -50 35 -74 47 -36 65 -66 80
-129 12 -50 11 -55 -11 -81 -33 -38 -33 -98 1 -131 13 -14 29 -25 35 -25 6 0
10 -48 10 -135 0 -74 -2 -135 -5 -135 -3 0 -31 13 -63 29 -196 102 -323 299
-339 526 -14 211 102 440 283 560 42 28 54 42 52 58 -5 33 -27 30 -87 -9z
m242 -766 c18 -24 18 -30 7 -58 -32 -78 -130 -60 -130 24 0 66 82 89 123 34z
m385 16 c15 -11 22 -25 22 -50 0 -63 -62 -96 -108 -56 -71 59 10 160 86 106z"/>
</g>
</svg>
